PathFileType	4	(X/Y/Z)	C:\Users\Basilio\Documents\Thesis Gigler\squatting_fais\c3dfiles\044\SLS_front_pre1\markers_experimental.trc
DataRate	CameraRate	NumFrames	NumMarkers	Units	OrigDataRate	OrigDataStartFrame	OrigNumFrames
200.000000	200.000000	4	60	mm	200.000000	981	1570
Frame#	Time	FHD			LBHD			RBHD			C7			T10			CLAV			LSHO			LUUPA			LMUPA			LDUPA			LLEP			LMEP			LUL			LRFIN			RSHO			RUPA1			RMUPA			RDUPA			RLEP			RMEP			RUL			RUFIN			LASI			RASI			USACR			LSACR			LTHI1			LTHI2			LTHI3			LTHI4			LLFC			LMFC			LTIB1			LTIB2			LTIB3			LTIB4			LLMAL			LMMAL			LHEE			LMT1			LMT2			LMT5			RTHI			RTHI2			RTHI3			RTHI4			RLFC			RMFC			RTIB1			RTIB2			RTIB3			RTIB4			RLMAL			RHEE			RMT1			RMT2			RMT5			RMMAL			RSACR			LRAD			
		X1	Y1	Z1	X2	Y2	Z2	X3	Y3	Z3	X4	Y4	Z4	X5	Y5	Z5	X6	Y6	Z6	X7	Y7	Z7	X8	Y8	Z8	X9	Y9	Z9	X10	Y10	Z10	X11	Y11	Z11	X12	Y12	Z12	X13	Y13	Z13	X14	Y14	Z14	X15	Y15	Z15	X16	Y16	Z16	X17	Y17	Z17	X18	Y18	Z18	X19	Y19	Z19	X20	Y20	Z20	X21	Y21	Z21	X22	Y22	Z22	X23	Y23	Z23	X24	Y24	Z24	X25	Y25	Z25	X26	Y26	Z26	X27	Y27	Z27	X28	Y28	Z28	X29	Y29	Z29	X30	Y30	Z30	X31	Y31	Z31	X32	Y32	Z32	X33	Y33	Z33	X34	Y34	Z34	X35	Y35	Z35	X36	Y36	Z36	X37	Y37	Z37	X38	Y38	Z38	X39	Y39	Z39	X40	Y40	Z40	X41	Y41	Z41	X42	Y42	Z42	X43	Y43	Z43	X44	Y44	Z44	X45	Y45	Z45	X46	Y46	Z46	X47	Y47	Z47	X48	Y48	Z48	X49	Y49	Z49	X50	Y50	Z50	X51	Y51	Z51	X52	Y52	Z52	X53	Y53	Z53	X54	Y54	Z54	X55	Y55	Z55	X56	Y56	Z56	X57	Y57	Z57	X58	Y58	Z58	X59	Y59	Z59	X60	Y60	Z60	

982	4.905	-151.41357421875	1588.633666992188	-1082.792358398438	-288.6862487792969	1559.731079101563	-1158.018798828125	-329.5463562011719	1553.483032226563	-997.2088623046877	-371.6131896972657	1405.821166992188	-1073.59130859375	-494.1260375976564	1139.316650390625	-1018.746765136719	-250.8294372558594	1325.220092773438	-1068.453857421875	-280.8867797851563	1390.694702148438	-1213.239624023438	-128.3207092285157	1337.412719726563	-1309.22119140625	-98.21236419677737	1347.240112304688	-1269.5986328125	-60.21495819091798	1324.191162109375	-1311.1552734375	-0.7753570675849917	1316.222778320313	-1300.995483398438	-21.1526107788086	1240.50048828125	-1281.981567382813	243.3347930908204	1303.844604492188	-1165.925903320313	252.3587036132813	1323.516845703125	-1065.850830078125	-279.8115539550782	1405.37939453125	-921.1396484375002	-140.7432861328125	1366.063354492188	-807.9399414062502	-107.3712158203125	1372.204467773438	-846.1189575195315	-72.48805999755861	1354.204833984375	-801.147399902344	-11.06653308868408	1347.070434570313	-808.0671386718752	-25.0635051727295	1266.271362304688	-815.1184082031252	240.8042297363282	1317.111572265625	-930.6334228515627	250.1500396728516	1299.4580078125	-1043.8896484375	-389.7194213867189	909.2747802734377	-1106.0546875	-378.5482177734376	906.2017822265627	-892.2080688476565	-543.3355102539064	977.8787231445315	-987.739685058594	-557.9561157226564	946.0872802734377	-1012.010925292969	-380.2316589355469	699.2902832031251	-1183.049438476563	-302.8597412109376	663.0435791015626	-1190.18408203125	-268.0095214843751	694.6685180664064	-1184.882202148438	-287.9214172363282	605.6645507812501	-1175.603515625	-185.8707733154297	493.5650329589845	-1156.84228515625	-172.8602294921875	502.7851562500001	-1038.097778320313	-195.8460845947266	332.5671997070313	-1055.861694335938	-239.7240142822266	287.3341674804688	-1115.134765625	-207.5729370117188	280.3720703125001	-1079.731567382813	-249.1305389404297	220.1447296142579	-1036.980346679688	-338.4194335937501	121.4859237670899	-1067.272583007813	-314.1255798339844	141.811752319336	-984.9747314453127	-407.286834716797	110.8276138305664	-1010.822204589844	-202.2054901123047	64.72278594970705	-988.0261230468752	-200.0886230468751	62.09096145629884	-1035.242431640625	-237.9005126953126	46.92419433593751	-1080.728515625	-289.3646850585938	711.1219482421876	-803.9097290039065	-221.1161499023438	719.6595458984376	-807.636901855469	-206.3126373291016	748.2614746093751	-819.2631835937502	-168.2078552246094	655.1304321289064	-824.278015136719	-89.34075164794923	591.1856689453126	-829.9463500976565	-97.27286529541018	574.9985961914064	-947.8402099609377	3.401899576187135	494.1772766113282	-856.4100341796877	-31.620756149292	404.7740783691407	-799.2697753906252	7.37344551086426	412.655975341797	-821.7553710937502	33.3375587463379	367.3721313476563	-845.948425292969	31.95907020568848	200.6624298095704	-815.5534667968752	0.8632571101188662	130.6482696533203	-852.1077880859377	183.1699523925782	228.9122619628907	-898.6726074218752	190.7213897705078	236.7046203613282	-862.443298339844	174.7429809570313	205.9947662353516	-805.1231689453127	40.80108642578126	209.4140167236329	-901.3953247070315	-551.8295898437501	949.8062744140627	-957.3111572265627	nan	nan	nan	
983	4.91	-151.3143463134766	1589.714477539063	-1082.737182617188	-288.8157958984376	1560.66748046875	-1157.877075195313	-329.6731262207032	1554.613403320313	-997.162048339844	-371.9488525390626	1407.331420898438	-1073.804321289063	-493.9265441894532	1140.088500976563	-1018.66162109375	-250.6980133056641	1326.490600585938	-1068.388305664063	-281.0410766601563	1391.49853515625	-1213.089477539063	-128.4102478027344	1338.060180664063	-1309.128173828125	-98.504997253418	1348.024780273438	-1269.421264648438	-60.08420944213869	1325.227416992188	-1311.162353515625	-0.6845635175704957	1317.10107421875	-1301.023071289063	-21.52682304382325	1241.703735351563	-1281.51416015625	243.5658264160157	1304.287353515625	-1165.755737304688	252.1634826660157	1324.089477539063	-1065.789428710938	-279.8897399902344	1406.50244140625	-921.0043945312502	-140.8515625	1366.642700195313	-807.8762817382815	-107.4144134521485	1373.14990234375	-845.8853759765627	-72.56064605712892	1354.978881835938	-801.0354614257815	-11.06660652160645	1347.8447265625	-807.9012451171877	-25.0157642364502	1267.09521484375	-814.7940063476565	240.7210540771485	1318.0107421875	-930.4597167968752	250.1069641113282	1300.2421875	-1043.762451171875	-389.627410888672	910.1013793945315	-1105.916748046875	-378.1981811523438	906.960144042969	-892.1702880859377	-543.0321655273439	978.8284912109377	-987.7132568359377	-557.7296142578126	946.720886230469	-1011.941833496094	-380.4112243652344	700.0635986328126	-1182.94091796875	-303.1345214843751	663.4885864257814	-1190.211669921875	-268.1391296386719	695.1431884765626	-1184.945922851563	-288.2747802734376	606.1926879882814	-1175.564453125	-186.238265991211	493.5521850585939	-1156.86865234375	-173.6612243652344	503.7807006835939	-1038.963989257813	-196.3685607910157	332.7663574218751	-1055.803588867188	-240.0434265136719	287.4899902343751	-1115.15380859375	-207.6961364746094	280.2742004394532	-1079.776000976563	-249.2600555419922	220.4106903076172	-1037.006958007813	-338.4099426269532	121.5432357788086	-1067.249633789063	-314.2176208496094	141.8771209716797	-984.953552246094	-407.2741699218751	110.7565689086914	-1010.81640625	-202.0780181884766	64.50394439697267	-988.0398559570315	-200.3438110351563	62.30556869506837	-1035.284912109375	-237.9066467285157	47.03056716918946	-1080.709228515625	-289.4655456542969	711.9635620117189	-804.2669677734377	-221.2241668701172	720.0460205078126	-807.7406005859377	-206.2308044433594	748.6811523437501	-819.4827270507815	-168.2407836914063	655.2839965820314	-824.2952880859377	-89.53631591796876	591.1985473632814	-830.0960693359377	-97.52787017822268	575.0974731445314	-947.956481933594	2.908091068267823	493.9297485351564	-856.5189208984377	-32.20963287353516	404.7532348632814	-799.5401000976565	6.614667415618898	412.4221191406251	-821.8938598632815	32.67085647583009	367.1267089843751	-846.0232543945315	30.80084991455079	200.3282318115235	-815.6756591796877	-0.09869641810655597	130.1601715087891	-851.8385009765627	181.9446258544922	228.0022583007813	-898.966003417969	189.3040161132813	236.6065826416016	-863.179138183594	173.608154296875	205.4388122558594	-805.6387939453127	39.72166061401368	209.1604003906251	-901.4733886718752	-551.6032714843751	950.5433349609377	-957.2615966796877	nan	nan	nan	
984	4.915	-151.4344635009766	1590.311157226563	-1082.69140625	-288.0442810058594	1561.902709960938	-1157.85400390625	-329.8367614746094	1555.407348632813	-997.1333618164065	-371.7646789550782	1407.663330078125	-1073.431884765625	-493.7698974609376	1141.082763671875	-1018.721435546875	-249.2569274902344	1327.773071289063	-1069.15283203125	-280.9959411621094	1392.697631835938	-1213.22119140625	-128.5641479492188	1339.069946289063	-1309.040161132813	-98.35969543457034	1349.069702148438	-1269.54052734375	-60.2837600708008	1326.257690429688	-1311.036865234375	-0.7720407247543337	1317.954467773438	-1300.942749023438	-21.41241645812989	1242.839111328125	-1281.797607421875	243.2877655029297	1305.1767578125	-1165.563110351563	252.1810302734376	1324.558471679688	-1065.587646484375	-279.9630737304688	1407.387817382813	-920.876647949219	-140.7381134033203	1367.695190429688	-807.7088012695315	-107.5278854370117	1374.077514648438	-845.7071533203127	-72.76514434814455	1355.89208984375	-800.831481933594	-11.11377143859863	1348.699340820313	-807.720642089844	-25.28967666625977	1267.744140625	-814.4328613281252	240.5565490722657	1318.819458007813	-930.3282470703127	250.2298889160157	1301.101440429688	-1043.677734375	-389.7430725097657	910.9552001953127	-1105.825927734375	-378.0441589355469	907.8911132812502	-892.1860351562502	-542.9536743164064	979.782409667969	-987.6641845703127	-557.5622558593751	947.7420043945315	-1011.924865722656	-380.5377807617188	700.7666015625001	-1182.944702148438	-303.3428649902344	664.1763305664064	-1190.243408203125	-268.5090942382813	695.6125488281251	-1184.8837890625	-288.5586547851563	606.5723876953126	-1175.5185546875	-187.6923370361328	494.4652709960939	-1156.884155273438	-173.6957550048828	503.241180419922	-1038.06298828125	-196.6069641113282	333.3079528808594	-1055.844360351563	-240.286849975586	287.6748046875001	-1115.167236328125	-208.0532226562501	280.6975708007813	-1079.857543945313	-249.3385925292969	220.5008087158204	-1036.988647460938	-338.4398803710938	121.5341873168946	-1067.216918945313	-314.1991577148438	141.8531341552735	-984.9862060546877	-407.279266357422	110.7708969116211	-1010.8388671875	-202.2776794433594	64.74694824218751	-987.8067016601565	-200.3966827392579	62.36102676391603	-1035.269897460938	-237.9513702392579	47.05691146850587	-1080.7060546875	-289.4545288085938	712.3873291015626	-804.2104492187502	-221.1338348388672	720.3789062500001	-807.7742919921877	-206.1742706298829	748.9708251953126	-819.6190185546877	-168.3013305664063	655.4180908203126	-824.2535400390627	-89.92411041259767	591.2292480468751	-830.1231079101565	-97.88674163818362	575.1009521484376	-948.0080566406252	2.400454759597779	493.7787170410157	-856.6669921875002	-32.88158798217774	404.708221435547	-799.6123046875002	5.919353008270265	412.2206420898439	-821.9453735351565	31.82294654846192	367.0076904296876	-846.1008300781252	29.55245399475098	200.2316436767579	-815.7030029296877	-1.688051223754883	130.4009246826172	-851.946228027344	181.3362579345703	227.147689819336	-898.824890136719	188.6283721923828	235.5148468017579	-862.7628173828127	172.409652709961	205.0459442138672	-805.914978027344	38.41059875488282	208.9643554687501	-901.6345825195315	-551.6804809570314	951.5674438476565	-957.1873168945315	nan	nan	nan	
985	4.92	-151.7409973144532	1591.682495117188	-1082.603515625	-288.1100463867188	1562.969970703125	-1157.874267578125	-329.8374023437501	1556.233642578125	-997.080505371094	-371.6758117675782	1408.476440429688	-1073.48583984375	-493.6571044921876	1141.9345703125	-1018.711059570313	-250.8471374511719	1328.174072265625	-1068.212158203125	-280.9320373535157	1393.711791992188	-1213.112060546875	-128.3594512939453	1340.328125	-1309.08642578125	-98.28787994384768	1349.806518554688	-1269.509399414063	-60.27105712890626	1327.03515625	-1311.021240234375	-0.7330517172813417	1318.832885742188	-1300.882080078125	-21.28416824340821	1243.527709960938	-1281.820678710938	243.2721405029297	1306.243408203125	-1165.635498046875	252.1615905761719	1325.561279296875	-1065.369873046875	-280.0489501953126	1408.26953125	-920.7675781250002	-141.1239471435547	1368.727783203125	-807.5123291015627	-107.6220321655274	1374.84765625	-845.485046386719	-72.89275360107423	1356.892944335938	-800.7502441406252	-11.34982967376709	1349.599487304688	-807.5034790039065	-25.56350326538087	1268.943969726563	-814.3850708007815	240.3617248535157	1319.407104492188	-930.1159667968752	249.8815917968751	1301.826293945313	-1043.622436523438	-389.3421020507814	911.802673339844	-1105.963500976563	-377.8554687500001	908.5419921875002	-892.051452636719	-542.7010498046876	980.5278320312502	-987.6196899414065	-557.5455322265626	948.9639892578127	-1011.875305175781	-380.8735961914063	701.2860717773439	-1182.9677734375	-303.7346496582032	664.5792846679689	-1190.329345703125	-268.8790588378907	695.8759765625001	-1184.893188476563	-288.9866943359376	606.9035644531251	-1175.497802734375	-188.3455352783203	494.6944274902345	-1156.8740234375	-174.6175994873047	503.8371887207032	-1038.478637695313	-196.8494720458985	333.3886413574219	-1055.888671875	-240.5913391113282	287.7588806152344	-1115.161254882813	-208.2589111328126	280.6781921386719	-1079.765380859375	-249.4599304199219	220.5067291259766	-1037.119384765625	-338.4902038574219	121.5012435913086	-1067.229614257813	-314.2333679199219	141.8388671875	-984.9541625976565	-407.2615966796876	110.7578964233399	-1010.817321777344	-202.2113952636719	64.57505798339845	-987.7800903320315	-200.3429107666016	62.30669403076173	-1035.272094726563	-237.9663085937501	46.97092056274415	-1080.712646484375	-289.5094909667969	712.8292236328126	-804.2148437500002	-221.1174316406251	720.8051757812501	-807.9277954101565	-206.2354431152344	749.2973632812501	-819.5698242187502	-168.539306640625	655.6792602539064	-824.2886352539065	-90.19969940185548	591.1889648437501	-830.165466308594	-98.29775238037112	575.1599121093751	-948.0997314453127	2.038621664047242	493.490447998047	-856.6899414062502	-33.94136810302735	404.6107177734376	-799.5795898437502	5.287435054779054	412.2245178222657	-822.152526855469	30.78491401672364	366.9351806640626	-846.0942382812502	28.27925491333009	199.9983978271485	-815.8213500976565	-2.90452265739441	129.8609771728516	-852.1624145507815	179.9598236083985	227.2163085937501	-898.955993652344	187.3533935546875	235.0797271728516	-863.1594238281252	171.3269958496094	203.9558868408204	-806.0630493164065	37.19720840454102	208.7806396484376	-901.629089355469	-551.3889770507814	952.686706542969	-957.1096191406252	nan	nan	nan	
